<svg width="80" height="80" viewBox="0 0 48 48" fill="none" xmlns="http://www.w3.org/2000/svg">
<path d="M36.9846 4.66175L43.342 11.0193C45.0994 12.7767 45.0994 15.6259 43.342 17.3833L38.1732 22.5512C40.3392 22.876 42 24.7446 42 27.0012V37.5012C42 39.9864 39.9852 42.0012 37.5 42.0012H10.5C8.01472 42.0012 6 39.9864 6 37.5012V10.5011C6 8.01581 8.01472 6.0011 10.5 6.0011H21C23.2578 6.0011 25.1274 7.66401 25.4506 9.83191L30.6206 4.66175C32.378 2.90442 35.2272 2.90442 36.9846 4.66175ZM9 37.5012C9 38.3296 9.67158 39.0012 10.5 39.0012L22.498 38.9998L22.5 25.5012L9 25.4998V37.5012ZM25.498 38.9998L37.5 39.0012C38.3284 39.0012 39 38.3296 39 37.5012V27.0012C39 26.1726 38.3284 25.5012 37.5 25.5012L25.498 25.4998V38.9998ZM21 9.00109H10.5C9.67158 9.00109 9 9.67267 9 10.5011V22.4998H22.5V10.5011C22.5 9.67267 21.8284 9.00109 21 9.00109ZM25.5 18.6198V22.5012L29.38 22.4998L25.5 18.6198ZM32.7418 6.78308L26.3844 13.1406C25.7986 13.7264 25.7986 14.6762 26.3844 15.262L32.7418 21.6194C33.3276 22.2052 34.2774 22.2052 34.8632 21.6194L41.2208 15.262C41.8066 14.6762 41.8066 13.7264 41.2208 13.1406L34.8632 6.78308C34.2774 6.1973 33.3276 6.1973 32.7418 6.78308Z" fill="#212121"/>
</svg>
