<svg width="48" height="48" viewBox="0 0 48 48" fill="none" xmlns="http://www.w3.org/2000/svg">
<path d="M30.9846 1.66175L37.342 8.01931C39.0994 9.77667 39.0994 12.6259 37.342 14.3833L32.1732 19.5512C34.3392 19.876 36 21.7446 36 24.0012V34.5012C36 36.9864 33.9852 39.0012 31.5 39.0012H4.5C2.01472 39.0012 0 36.9864 0 34.5012V7.50109C0 5.01581 2.01472 3.0011 4.5 3.0011H15C17.2578 3.0011 19.1274 4.66401 19.4506 6.83191L24.6206 1.66175C26.378 -0.095585 29.2272 -0.095585 30.9846 1.66175ZM3 34.5012C3 35.3296 3.67158 36.0012 4.5 36.0012L16.498 35.9998L16.5 22.5012L3 22.4998V34.5012ZM19.498 35.9998L31.5 36.0012C32.3284 36.0012 33 35.3296 33 34.5012V24.0012C33 23.1726 32.3284 22.5012 31.5 22.5012L19.498 22.4998V35.9998ZM15 6.00109H4.5C3.67158 6.00109 3 6.67267 3 7.50109V19.4998H16.5V7.50109C16.5 6.67267 15.8284 6.00109 15 6.00109ZM19.5 15.6198V19.5012L23.38 19.4998L19.5 15.6198ZM26.7418 3.78308L20.3844 10.1406C19.7986 10.7264 19.7986 11.6762 20.3844 12.262L26.7418 18.6194C27.3276 19.2052 28.2774 19.2052 28.8632 18.6194L35.2208 12.262C35.8066 11.6762 35.8066 10.7264 35.2208 10.1406L28.8632 3.78308C28.2774 3.1973 27.3276 3.1973 26.7418 3.78308Z" fill="#3777F6"/>
</svg>
