<svg width="20" height="25" viewBox="0 0 20 25" fill="none" xmlns="http://www.w3.org/2000/svg">
    <path d="M11.7999 4.42856C11.7999 3.24509 10.994 2.2857 9.9999 2.2857C9.00579 2.2857 8.1999 3.24509 8.1999 4.42856H11.7999ZM6.9999 4.42856C6.9999 2.45612 8.34305 0.857132 9.9999 0.857132C11.6567 0.857132 12.9999 2.45612 12.9999 4.42856H18.9999C19.3312 4.42856 19.5999 4.74836 19.5999 5.14285C19.5999 5.53733 19.3312 5.85713 18.9999 5.85713H17.7346L16.7654 15.8571H11.7999C10.8058 15.8571 9.9999 16.8166 9.9999 18C9.9999 18.5488 10.1732 19.0494 10.4582 19.4286C10.1732 19.8077 9.9999 20.3083 9.9999 20.8571C9.9999 21.406 10.1732 21.9066 10.4582 22.2857C10.1732 22.6648 9.9999 23.1654 9.9999 23.7143C9.9999 23.9647 10.036 24.2051 10.1024 24.4286H7.27366C5.44507 24.4286 3.90697 22.7966 3.69738 20.6341L2.26515 5.85713H0.999902C0.668534 5.85713 0.399902 5.53733 0.399902 5.14285C0.399902 4.74836 0.668534 4.42856 0.999902 4.42856H6.9999ZM11.7999 17.2857C11.4686 17.2857 11.1999 17.6056 11.1999 18C11.1999 18.3944 11.4686 18.7143 11.7999 18.7143H18.9999C19.3312 18.7143 19.5999 18.3944 19.5999 18C19.5999 17.6056 19.3312 17.2857 18.9999 17.2857H11.7999ZM11.7999 20.1428C11.4686 20.1428 11.1999 20.4627 11.1999 20.8571C11.1999 21.2516 11.4686 21.5714 11.7999 21.5714H18.9999C19.3312 21.5714 19.5999 21.2516 19.5999 20.8571C19.5999 20.4627 19.3312 20.1428 18.9999 20.1428H11.7999ZM11.7999 23C11.4686 23 11.1999 23.3198 11.1999 23.7143C11.1999 24.1087 11.4686 24.4286 11.7999 24.4286H18.9999C19.3312 24.4286 19.5999 24.1087 19.5999 23.7143C19.5999 23.3198 19.3312 23 18.9999 23H11.7999Z" fill="#212121"/>
    </svg>