<svg width="20" height="24" viewBox="0 0 20 24" fill="none" xmlns="http://www.w3.org/2000/svg">
    <path d="M18.9519 1.34297C17.5543 -0.320748 15.2885 -0.320676 13.8911 1.34315L12.9995 2.40465L18.0602 8.42924L18.952 7.36738C20.3493 5.7037 20.3493 3.00654 18.9519 1.34297ZM1.94103 15.5711L11.9389 3.66742L16.9996 9.69201L7.00191 21.5953C6.59546 22.0793 6.08418 22.4194 5.52498 22.578L0.92373 23.8821C0.67037 23.9539 0.40385 23.8642 0.21968 23.6449C0.0355201 23.4257 -0.0399099 23.1084 0.0204101 22.8068L1.116 17.3288C1.2491 16.6633 1.5347 16.0549 1.94103 15.5711ZM0.75 1.2857H12.5252L11.0254 3.07142H0.75C0.33579 3.07142 0 2.67167 0 2.17856C0 1.68545 0.33579 1.2857 0.75 1.2857ZM0.75 6.04761H8.5257L7.02584 7.83332H0.75C0.33579 7.83332 0 7.43357 0 6.94047C0 6.44736 0.33579 6.04761 0.75 6.04761ZM0.75 10.8095H4.52613L3.02631 12.5952H0.75C0.33579 12.5952 0 12.1955 0 11.7024C0 11.2093 0.33579 10.8095 0.75 10.8095Z" fill="#212121"/>
    </svg>