<svg width="30" height="34" viewBox="0 0 30 34" fill="none" xmlns="http://www.w3.org/2000/svg">
<path d="M4 32.5C4 33.3284 4.67158 34 5.5 34H18C21.9572 34 25.0082 32.3546 27.0396 29.8516C29.0414 27.3852 30 24.1598 30 21C30 17.8402 29.0414 14.6148 27.0396 12.1485C25.0082 9.64532 21.9572 8 18 8H5.12132L10.0606 3.06066C10.6464 2.47488 10.6464 1.52512 10.0606 0.939343C9.47488 0.353563 8.52512 0.353563 7.93934 0.939343L0.439335 8.43934C-0.146445 9.02512 -0.146445 9.97488 0.439335 10.5607L7.93934 18.0606C8.52512 18.6464 9.47488 18.6464 10.0606 18.0606C10.6464 17.4748 10.6464 16.5252 10.0606 15.9394L5.12132 11H18C21.0428 11 23.2418 12.2297 24.7104 14.039C26.2086 15.8852 27 18.4098 27 21C27 23.5902 26.2086 26.1148 24.7104 27.961C23.2418 29.7704 21.0428 31 18 31H5.5C4.67158 31 4 31.6716 4 32.5Z" fill="#212121"/>
</svg>
